<?xml version="1.0" encoding="UTF-8" standalone="no"?>
<!-- Created with Inkscape (http://www.inkscape.org/) -->

<svg
   width="793.70081"
   height="1122.5197"
   viewBox="0 0 210 296.99999"
   version="1.1"
   id="svg1"
   xml:space="preserve"
   inkscape:version="1.4.4 (dcaf3e7d9e, 2026-05-05)"
   sodipodi:docname="anilha.svg"
   inkscape:export-filename="anilha-2.png"
   inkscape:export-xdpi="119.99991"
   inkscape:export-ydpi="119.99991"
   xmlns:inkscape="http://www.inkscape.org/namespaces/inkscape"
   xmlns:sodipodi="http://sodipodi.sourceforge.net/DTD/sodipodi-0.dtd"
   xmlns="http://www.w3.org/2000/svg"
   xmlns:svg="http://www.w3.org/2000/svg"><sodipodi:namedview
     id="namedview1"
     pagecolor="#505050"
     bordercolor="#eeeeee"
     borderopacity="1"
     inkscape:showpageshadow="0"
     inkscape:pageopacity="0"
     inkscape:pagecheckerboard="0"
     inkscape:deskcolor="#505050"
     inkscape:document-units="px"
     inkscape:zoom="5.1526935"
     inkscape:cx="362.72291"
     inkscape:cy="429.9693"
     inkscape:window-width="1280"
     inkscape:window-height="739"
     inkscape:window-x="0"
     inkscape:window-y="0"
     inkscape:window-maximized="1"
     inkscape:current-layer="layer1"
     showgrid="false" /><defs
     id="defs1" /><g
     inkscape:label="Camada 1"
     inkscape:groupmode="layer"
     id="layer1"><path
       style="fill:#ffffff;stroke-width:0.0785705"
       d="m 99.632569,120.41431 c -0.132879,-0.0202 -0.406921,-0.0827 -0.406921,-0.0927 0,-0.003 0.193369,-0.19564 0.429709,-0.42749 0.236339,-0.23184 0.451583,-0.45881 0.478313,-0.50437 0.31757,-0.5412 0.004,-1.47009 -0.749751,-2.21766 -0.610661,-0.60603 -1.381305,-0.94958 -1.929442,-0.86015 -0.266918,0.0436 -0.351908,0.10184 -0.835149,0.57281 -0.242601,0.23644 -0.444482,0.42617 -0.448624,0.42162 -0.0041,-0.005 -0.02895,-0.0968 -0.05513,-0.20501 -0.06197,-0.25616 -0.06753,-0.66661 -0.01178,-0.8698 0.0799,-0.29118 0.113653,-0.33352 0.813535,-1.02029 0.357131,-0.35045 0.69681,-0.66994 0.754844,-0.70999 0.25522,-0.1761 0.685636,-0.24021 1.115247,-0.16611 0.719151,0.12406 1.51915,0.57461 2.19054,1.23369 0.65976,0.64767 1.10594,1.39992 1.26518,2.13307 0.0469,0.21614 0.0466,0.61235 -7.9e-4,0.78696 -0.0472,0.17405 -0.12281,0.3259 -0.2183,0.43828 -0.042,0.0494 -0.34839,0.35592 -0.68092,0.68115 -0.64008,0.62605 -0.71217,0.68228 -0.98022,0.76461 -0.16802,0.0516 -0.528974,0.072 -0.730372,0.0414 z m 1.585171,-1.50995 c 0.0203,-0.0326 -0.0641,-0.37491 -0.14618,-0.59294 -0.22592,-0.60024 -0.59921,-1.15481 -1.135607,-1.68715 -0.633714,-0.6289 -1.31627,-1.04376 -2.024972,-1.23077 -0.231206,-0.061 -0.26824,-0.0636 -0.284948,-0.0204 -0.01737,0.045 -0.0081,0.05 0.152317,0.0833 0.371896,0.0772 0.884268,0.30268 1.269922,0.55882 1.014218,0.67361 1.815038,1.7205 2.034848,2.66013 0.0253,0.10822 0.0494,0.20839 0.0535,0.22263 0.009,0.0303 0.0635,0.0346 0.0811,0.006 z m -2.701595,1.49645 c -0.487351,-0.0497 -1.023647,-0.32196 -1.493239,-0.75798 -0.325301,-0.30205 -0.550368,-0.60234 -0.730758,-0.97499 -0.150434,-0.31076 -0.204088,-0.5373 -0.192123,-0.81119 0.01465,-0.33537 0.03698,-0.3703 0.564968,-0.88374 0.563843,-0.54831 0.593104,-0.56529 0.974268,-0.56529 0.215659,0 0.288616,0.009 0.417794,0.0485 0.460843,0.14295 0.878492,0.40208 1.262815,0.78349 0.72499,0.71949 1.03487,1.6315 0.71988,2.11865 -0.09237,0.14285 -0.894144,0.90122 -1.018157,0.96304 -0.08764,0.0437 -0.342839,0.0994 -0.411543,0.0898 -0.01148,-0.002 -0.05373,-0.006 -0.0939,-0.0103 z m 0.890775,-1.28286 c 0.01685,-0.0436 -0.01793,-0.14052 -0.13182,-0.36736 -0.277592,-0.55289 -0.844091,-1.13409 -1.396864,-1.43313 -0.218246,-0.11806 -0.482356,-0.22301 -0.522622,-0.20768 -0.07023,0.0268 -0.01779,0.0718 0.168837,0.14514 0.221175,0.0868 0.461311,0.22389 0.697801,0.39815 0.214567,0.1581 0.567831,0.51859 0.728068,0.74298 0.121371,0.16996 0.315386,0.52817 0.37278,0.68827 0.02607,0.0727 0.06298,0.0875 0.08382,0.0336 z m 4.22322,-3.0648 c -0.37052,-0.0616 -0.91161,-0.28343 -1.31274,-0.53815 l -0.15317,-0.0973 0.12187,-0.11747 c 0.067,-0.0646 0.30661,-0.2971 0.5324,-0.51666 l 0.41053,-0.3992 0.0149,0.16943 c 0.0103,0.11735 0.0241,0.17293 0.0447,0.18081 0.0561,0.0213 0.0645,-0.0253 0.0452,-0.25299 -0.0475,-0.56127 -0.34049,-1.03806 -0.76997,-1.25323 -0.21437,-0.10739 -0.34959,-0.13025 -0.67762,-0.11456 -0.35347,0.0169 -0.38605,0.0235 -0.38605,0.0787 0,0.0404 0.008,0.0416 0.19303,0.028 l 0.19302,-0.0142 -0.073,0.072 c -0.18845,0.18558 -0.92961,0.86175 -0.94458,0.86175 -0.0307,0 -0.26556,-0.3792 -0.39116,-0.63165 -0.43358,-0.8715 -0.44166,-1.65214 -0.0218,-2.10735 0.0605,-0.0656 0.37074,-0.37007 0.68945,-0.67664 0.6072,-0.58407 0.67406,-0.63495 0.93938,-0.71467 0.1767,-0.0531 0.5151,-0.0634 0.76167,-0.0232 0.74245,0.12098 1.53573,0.56975 2.23338,1.26344 0.46041,0.45781 0.72707,0.8215 0.97263,1.32654 0.13688,0.28153 0.23047,0.55043 0.27784,0.79824 0.0378,0.19756 0.0425,0.57066 0.009,0.72806 -0.0316,0.14935 -0.14253,0.382 -0.23008,0.48251 -0.0397,0.0455 -0.34872,0.35388 -0.68675,0.68515 -0.56285,0.55159 -0.62777,0.60863 -0.7711,0.67747 -0.27878,0.13388 -0.63098,0.17022 -1.02112,0.10535 z m 1.6011,-1.82265 c 0.01,-0.0636 -0.1127,-0.38699 -0.24804,-0.65616 -0.55715,-1.10807 -1.67235,-2.09674 -2.78106,-2.46553 -0.19538,-0.065 -0.24282,-0.0683 -0.24282,-0.0169 0,0.0296 0.0491,0.0538 0.22798,0.11255 0.61682,0.2026 1.28338,0.64028 1.83035,1.20185 0.48827,0.5013 0.85335,1.057 1.05053,1.59904 0.10209,0.2806 0.10345,0.28345 0.13116,0.2744 0.0142,-0.005 0.0285,-0.0268 0.0319,-0.0492 z m -3.89943,1.57309 c -0.23668,-0.27613 -0.6277,-0.63048 -0.95322,-0.86382 -0.0603,-0.0432 -0.10885,-0.0847 -0.10798,-0.0923 0.001,-0.013 1.399,-1.31538 1.66699,-1.55353 l 0.12469,-0.11081 0.16241,0.0328 c 0.24325,0.0492 0.40702,0.1381 0.59253,0.32158 0.12953,0.12811 0.17643,0.19341 0.25414,0.35385 0.0524,0.1082 0.10736,0.23805 0.1221,0.28855 l 0.0268,0.0918 -0.42702,0.41113 c -0.23486,0.22612 -0.62958,0.60599 -0.87716,0.84416 l -0.45013,0.43303 z m 4.9506,-2.94246 c -0.0695,-0.19997 -0.26784,-0.58523 -0.42461,-0.82469 -0.53727,-0.82059 -1.44645,-1.59948 -2.23667,-1.91611 l -0.12238,-0.049 0.0785,-0.0674 c 0.13991,-0.12003 0.27841,-0.15978 0.55232,-0.15851 0.29129,9.9e-4 0.50469,0.0573 0.82427,0.21607 0.4728,0.23491 0.96925,0.67277 1.26861,1.11888 0.47755,0.71165 0.55814,1.34505 0.21969,1.72663 -0.0458,0.0516 -0.0895,0.0939 -0.0972,0.0939 -0.008,0 -0.0358,-0.0629 -0.0625,-0.13978 z"
       id="path1"
       inkscape:export-filename="anilha-branco.png"
       inkscape:export-xdpi="119.99991"
       inkscape:export-ydpi="119.99991" /></g></svg>
