<?xml version="1.0" encoding="UTF-8" standalone="no"?>
<!-- Created with Inkscape (http://www.inkscape.org/) -->

<svg
   width="210mm"
   height="297mm"
   viewBox="0 0 210 297"
   version="1.1"
   id="svg1"
   xml:space="preserve"
   inkscape:version="1.4.4 (dcaf3e7d9e, 2026-05-05)"
   sodipodi:docname="logo.svg"
   xmlns:inkscape="http://www.inkscape.org/namespaces/inkscape"
   xmlns:sodipodi="http://sodipodi.sourceforge.net/DTD/sodipodi-0.dtd"
   xmlns:xlink="http://www.w3.org/1999/xlink"
   xmlns="http://www.w3.org/2000/svg"
   xmlns:svg="http://www.w3.org/2000/svg"><sodipodi:namedview
     id="namedview1"
     pagecolor="#505050"
     bordercolor="#eeeeee"
     borderopacity="1"
     inkscape:showpageshadow="0"
     inkscape:pageopacity="0"
     inkscape:pagecheckerboard="0"
     inkscape:deskcolor="#505050"
     inkscape:document-units="mm"
     inkscape:zoom="0.88194444"
     inkscape:cx="370.20472"
     inkscape:cy="590.17323"
     inkscape:window-width="1280"
     inkscape:window-height="739"
     inkscape:window-x="0"
     inkscape:window-y="0"
     inkscape:window-maximized="1"
     inkscape:current-layer="layer1" /><defs
     id="defs1"><linearGradient
       id="linearGradient43"
       inkscape:collect="always"><stop
         style="stop-color:#1a1a1a;stop-opacity:1"
         offset="0"
         id="stop43" /><stop
         style="stop-color:#ff0000;stop-opacity:0;"
         offset="1"
         id="stop44" /></linearGradient><linearGradient
       id="linearGradient16"
       inkscape:collect="always"><stop
         style="stop-color:#000000;stop-opacity:1;"
         offset="0"
         id="stop16" /><stop
         style="stop-color:#333333;stop-opacity:1"
         offset="0.44973549"
         id="stop18" /><stop
         style="stop-color:#000000;stop-opacity:1"
         offset="1"
         id="stop17" /></linearGradient><linearGradient
       id="linearGradient9"
       inkscape:collect="always"><stop
         style="stop-color:#1a1a1a;stop-opacity:1"
         offset="0"
         id="stop10" /><stop
         style="stop-color:#000000;stop-opacity:1"
         offset="1"
         id="stop11" /></linearGradient><linearGradient
       id="linearGradient5"
       inkscape:collect="always"><stop
         style="stop-color:#1a1a1a;stop-opacity:1"
         offset="0"
         id="stop5" /><stop
         style="stop-color:#000000;stop-opacity:1"
         offset="0.20794068"
         id="stop8" /><stop
         style="stop-color:#4d4d4d;stop-opacity:1"
         offset="0.50269771"
         id="stop7" /><stop
         style="stop-color:#1a1a1a;stop-opacity:1"
         offset="0.84809595"
         id="stop9" /><stop
         style="stop-color:#333333;stop-opacity:1"
         offset="1"
         id="stop6" /></linearGradient><clipPath
       clipPathUnits="userSpaceOnUse"
       id="clipPath1"><rect
         style="fill:#d5d5ff;stroke:#0044aa;stroke-width:0.264583"
         id="rect2"
         width="87.859245"
         height="54.299999"
         x="62.399998"
         y="110.4" /></clipPath><linearGradient
       inkscape:collect="always"
       xlink:href="#linearGradient16"
       id="linearGradient36"
       gradientUnits="userSpaceOnUse"
       gradientTransform="matrix(1.96,0,0,1,-80.191355,0)"
       x1="76.314499"
       y1="134.49171"
       x2="86.337738"
       y2="134.49171" /><linearGradient
       inkscape:collect="always"
       xlink:href="#linearGradient9"
       id="linearGradient37"
       gradientUnits="userSpaceOnUse"
       x1="83.155754"
       y1="106.38422"
       x2="83.367889"
       y2="102.67191" /><linearGradient
       inkscape:collect="always"
       xlink:href="#linearGradient5"
       id="linearGradient38"
       gradientUnits="userSpaceOnUse"
       x1="52.290546"
       y1="111.68752"
       x2="110.94505"
       y2="112.00571" /><linearGradient
       inkscape:collect="always"
       xlink:href="#linearGradient9"
       id="linearGradient39"
       gradientUnits="userSpaceOnUse"
       x1="83.155754"
       y1="106.38422"
       x2="83.367889"
       y2="102.67191" /><linearGradient
       inkscape:collect="always"
       xlink:href="#linearGradient5"
       id="linearGradient40"
       gradientUnits="userSpaceOnUse"
       x1="52.290546"
       y1="111.68752"
       x2="110.94505"
       y2="112.00571" /><linearGradient
       inkscape:collect="always"
       xlink:href="#linearGradient9"
       id="linearGradient41"
       gradientUnits="userSpaceOnUse"
       x1="83.155754"
       y1="106.38422"
       x2="83.367889"
       y2="102.67191" /><linearGradient
       inkscape:collect="always"
       xlink:href="#linearGradient5"
       id="linearGradient42"
       gradientUnits="userSpaceOnUse"
       x1="52.290546"
       y1="111.68752"
       x2="110.94505"
       y2="112.00571" /><linearGradient
       inkscape:collect="always"
       xlink:href="#linearGradient43"
       id="linearGradient44"
       x1="114.67587"
       y1="149.8356"
       x2="129.8248"
       y2="150.61374"
       gradientUnits="userSpaceOnUse"
       gradientTransform="matrix(1.0297644,0,0,1,-3.3757482,0)" /><linearGradient
       inkscape:collect="always"
       xlink:href="#linearGradient16"
       id="linearGradient56"
       gradientUnits="userSpaceOnUse"
       gradientTransform="matrix(1.96,0,0,1,-80.191355,0)"
       x1="76.314499"
       y1="134.49171"
       x2="86.337738"
       y2="134.49171" /><linearGradient
       inkscape:collect="always"
       xlink:href="#linearGradient9"
       id="linearGradient57"
       gradientUnits="userSpaceOnUse"
       x1="83.155754"
       y1="106.38422"
       x2="83.367889"
       y2="102.67191" /><linearGradient
       inkscape:collect="always"
       xlink:href="#linearGradient5"
       id="linearGradient58"
       gradientUnits="userSpaceOnUse"
       x1="52.290546"
       y1="111.68752"
       x2="110.94505"
       y2="112.00571" /><linearGradient
       inkscape:collect="always"
       xlink:href="#linearGradient9"
       id="linearGradient59"
       gradientUnits="userSpaceOnUse"
       x1="83.155754"
       y1="106.38422"
       x2="83.367889"
       y2="102.67191" /><linearGradient
       inkscape:collect="always"
       xlink:href="#linearGradient5"
       id="linearGradient60"
       gradientUnits="userSpaceOnUse"
       x1="52.290546"
       y1="111.68752"
       x2="110.94505"
       y2="112.00571" /><linearGradient
       inkscape:collect="always"
       xlink:href="#linearGradient9"
       id="linearGradient61"
       gradientUnits="userSpaceOnUse"
       x1="83.155754"
       y1="106.38422"
       x2="83.367889"
       y2="102.67191" /><linearGradient
       inkscape:collect="always"
       xlink:href="#linearGradient5"
       id="linearGradient62"
       gradientUnits="userSpaceOnUse"
       x1="52.290546"
       y1="111.68752"
       x2="110.94505"
       y2="112.00571" /></defs><g
     inkscape:label="Camada 1"
     inkscape:groupmode="layer"
     id="layer1"><g
       id="g36"
       transform="matrix(-0.12389726,-0.13171934,-0.13171934,0.12389726,170.03646,113.71578)"><rect
         style="fill:url(#linearGradient36);fill-opacity:1;stroke:none;stroke-width:0.370416"
         id="rect29"
         width="10.394469"
         height="51.335953"
         x="74.478363"
         y="106.27814" /><g
         id="g35"><g
           id="g30"
           transform="translate(-2.7577164,1.9091883)"><ellipse
             style="fill:#999999;stroke:none;stroke-width:0.264583"
             id="ellipse29"
             cx="82.395767"
             cy="112.95"
             rx="33.75"
             ry="4.0500002" /><ellipse
             style="fill:url(#linearGradient37);fill-opacity:1;stroke:none;stroke-width:0.264583"
             id="ellipse30"
             cx="82.395767"
             cy="107.5323"
             rx="33.75"
             ry="4.0500031" /><path
             style="fill:url(#linearGradient38);fill-opacity:1;stroke:none;stroke-width:0.264583"
             d="m 48.645767,107.5323 c -0.390873,1.41503 -0.780508,2.83129 0,5.4177 0,2.06173 4.943533,2.07328 7.596556,2.55985 C 76.0893,119.14983 115.42379,117 116.14577,112.95 c 0.94265,-3.11389 0.41102,-4.46411 0,-5.4177 -20.675001,4.05 -43.100002,5.4 -67.500003,0 z"
             id="path30"
             sodipodi:nodetypes="ccsccc" /></g><g
           id="g32"
           transform="matrix(0.81672241,0,0,0.81672241,12.350462,17.056799)"><ellipse
             style="fill:#999999;stroke:none;stroke-width:0.264583"
             id="ellipse31"
             cx="82.395767"
             cy="112.95"
             rx="33.75"
             ry="4.0500002" /><ellipse
             style="fill:url(#linearGradient39);fill-opacity:1;stroke:none;stroke-width:0.264583"
             id="ellipse32"
             cx="82.395767"
             cy="107.5323"
             rx="33.75"
             ry="4.0500031" /><path
             style="fill:url(#linearGradient40);fill-opacity:1;stroke:none;stroke-width:0.264583"
             d="m 48.645767,107.5323 c -0.390873,1.41503 -0.780508,2.83129 0,5.4177 0,2.06173 4.943533,2.07328 7.596556,2.55985 C 76.0893,119.14983 115.42379,117 116.14577,112.95 c 0.94265,-3.11389 0.41102,-4.46411 0,-5.4177 -20.675001,4.05 -43.100002,5.4 -67.500003,0 z"
             id="path32"
             sodipodi:nodetypes="ccsccc" /></g><g
           id="g34"
           transform="matrix(0.60289855,0,0,0.60289855,29.976671,36.850331)"><ellipse
             style="fill:#999999;stroke:none;stroke-width:0.264583"
             id="ellipse33"
             cx="82.395767"
             cy="112.95"
             rx="33.75"
             ry="4.0500002" /><ellipse
             style="fill:url(#linearGradient41);fill-opacity:1;stroke:none;stroke-width:0.264583"
             id="ellipse34"
             cx="82.395767"
             cy="107.5323"
             rx="33.75"
             ry="4.0500031" /><path
             style="fill:url(#linearGradient42);fill-opacity:1;stroke:none;stroke-width:0.264583"
             d="m 48.645767,107.5323 c -0.390873,1.41503 -0.780508,2.83129 0,5.4177 0,2.06173 4.943533,2.07328 7.596556,2.55985 C 76.0893,119.14983 115.42379,117 116.14577,112.95 c 0.94265,-3.11389 0.41102,-4.46411 0,-5.4177 -20.675001,4.05 -43.100002,5.4 -67.500003,0 z"
             id="path34"
             sodipodi:nodetypes="ccsccc" /></g></g></g><g
       id="g56"
       transform="matrix(0.11213467,-0.1418673,0.1418673,0.11213467,57.944092,114.58327)"><rect
         style="fill:url(#linearGradient56);fill-opacity:1;stroke:none;stroke-width:0.370416"
         id="rect49"
         width="10.394469"
         height="51.335953"
         x="74.478363"
         y="106.27814" /><g
         id="g55"><g
           id="g50"
           transform="translate(-2.7577164,1.9091883)"><ellipse
             style="fill:#999999;stroke:none;stroke-width:0.264583"
             id="ellipse49"
             cx="82.395767"
             cy="112.95"
             rx="33.75"
             ry="4.0500002" /><ellipse
             style="fill:url(#linearGradient57);fill-opacity:1;stroke:none;stroke-width:0.264583"
             id="ellipse50"
             cx="82.395767"
             cy="107.5323"
             rx="33.75"
             ry="4.0500031" /><path
             style="fill:url(#linearGradient58);fill-opacity:1;stroke:none;stroke-width:0.264583"
             d="m 48.645767,107.5323 c -0.390873,1.41503 -0.780508,2.83129 0,5.4177 0,2.06173 4.943533,2.07328 7.596556,2.55985 C 76.0893,119.14983 115.42379,117 116.14577,112.95 c 0.94265,-3.11389 0.41102,-4.46411 0,-5.4177 -20.675001,4.05 -43.100002,5.4 -67.500003,0 z"
             id="path50"
             sodipodi:nodetypes="ccsccc" /></g><g
           id="g52"
           transform="matrix(0.81672241,0,0,0.81672241,12.350462,17.056799)"><ellipse
             style="fill:#999999;stroke:none;stroke-width:0.264583"
             id="ellipse51"
             cx="82.395767"
             cy="112.95"
             rx="33.75"
             ry="4.0500002" /><ellipse
             style="fill:url(#linearGradient59);fill-opacity:1;stroke:none;stroke-width:0.264583"
             id="ellipse52"
             cx="82.395767"
             cy="107.5323"
             rx="33.75"
             ry="4.0500031" /><path
             style="fill:url(#linearGradient60);fill-opacity:1;stroke:none;stroke-width:0.264583"
             d="m 48.645767,107.5323 c -0.390873,1.41503 -0.780508,2.83129 0,5.4177 0,2.06173 4.943533,2.07328 7.596556,2.55985 C 76.0893,119.14983 115.42379,117 116.14577,112.95 c 0.94265,-3.11389 0.41102,-4.46411 0,-5.4177 -20.675001,4.05 -43.100002,5.4 -67.500003,0 z"
             id="path52"
             sodipodi:nodetypes="ccsccc" /></g><g
           id="g54"
           transform="matrix(0.60289855,0,0,0.60289855,29.976671,36.850331)"><ellipse
             style="fill:#999999;stroke:none;stroke-width:0.264583"
             id="ellipse53"
             cx="82.395767"
             cy="112.95"
             rx="33.75"
             ry="4.0500002" /><ellipse
             style="fill:url(#linearGradient61);fill-opacity:1;stroke:none;stroke-width:0.264583"
             id="ellipse54"
             cx="82.395767"
             cy="107.5323"
             rx="33.75"
             ry="4.0500031" /><path
             style="fill:url(#linearGradient62);fill-opacity:1;stroke:none;stroke-width:0.264583"
             d="m 48.645767,107.5323 c -0.390873,1.41503 -0.780508,2.83129 0,5.4177 0,2.06173 4.943533,2.07328 7.596556,2.55985 C 76.0893,119.14983 115.42379,117 116.14577,112.95 c 0.94265,-3.11389 0.41102,-4.46411 0,-5.4177 -20.675001,4.05 -43.100002,5.4 -67.500003,0 z"
             id="path54"
             sodipodi:nodetypes="ccsccc" /></g></g></g><circle
       style="fill:#f07320;stroke:#ffffff;stroke-width:2.64583333;fill-opacity:1;stroke-dasharray:none"
       id="path2"
       cx="113.41544"
       cy="148.76909"
       r="41.400002" /><ellipse
       style="fill:url(#linearGradient44);fill-opacity:1;stroke:none;stroke-width:0.230596"
       id="circle42"
       cx="113.41544"
       cy="148.76909"
       rx="36.615082"
       ry="35.556751" /><g
       id="g49"
       transform="matrix(-0.52704029,-0.02165336,-0.02165336,0.52704029,220.20901,48.109567)"
       style="fill:#ffffff"><path
         style="fill:#ffffff;fill-opacity:1;stroke:none;stroke-width:2.64583;stroke-dasharray:none"
         d="m 184.97914,200.88902 8.69741,-69.15503 4.45478,69.15503 z"
         id="path48" /><circle
         style="fill:#ffffff;fill-opacity:1;stroke:none;stroke-width:2.64583;stroke-dasharray:none"
         id="circle48"
         cx="191.55524"
         cy="200.88902"
         r="6.5760927" /></g><g
       id="g48"
       transform="matrix(0.03016774,0.52662154,-0.52662154,0.03016774,214.72707,42.898126)"
       style="fill:#000000"><path
         style="fill:#000000;fill-opacity:1;stroke:none;stroke-width:2.64583;stroke-dasharray:none"
         d="m 184.97914,200.88902 8.69741,-69.15503 4.45478,69.15503 z"
         id="path45" /><circle
         style="fill:#000000;fill-opacity:1;stroke:none;stroke-width:2.64583;stroke-dasharray:none"
         id="path44"
         cx="191.55524"
         cy="200.88902"
         r="6.5760927" /></g></g></svg>
